# xmcd
#
# Track frame offsets:
#	150
#	17743
#	35003
#	54090
#	88273
#	104113
#	118420
#	135343
#	166790
#
# Disc length: 2414 seconds
# Revision: 4
# Processed by: cddbd v1.5.2PL0 Copyright (c) Steve Scherf et al.
# Submitted via: dBpowerAMP V12.0
#
DISCID=75096c09
DTITLE=Breakout - Kamienie
DYEAR=1974
DGENRE=Blues
TTITLE0=Czy zgadniesz
TTITLE1=Czułość niosę tobie
TTITLE2=Spiekota
TTITLE3=Modlitwa
TTITLE4=Bądź Słońcem
TTITLE5=Pojdę prosto
TTITLE6=Koło mego okna
TTITLE7=Kamienie
TTITLE8=Tobie Ta Pieśń
EXTD=
EXTT0=
EXTT1=
EXTT2=
EXTT3=
EXTT4=
EXTT5=
EXTT6=
EXTT7=
EXTT8=
PLAYORDER=
